<svg xmlns="http://www.w3.org/2000/svg" width="20" height="20" viewBox="0 0 20 20" fill="none">
  <path d="M12.5 14.7083H12V15.2083V15.4167C12 15.9384 11.8474 16.1991 11.6839 16.34C11.5066 16.4929 11.226 16.5833 10.8333 16.5833H5.83332C5.44067 16.5833 5.16004 16.4929 4.98271 16.34C4.81921 16.1991 4.66666 15.9384 4.66666 15.4167V15.2083V14.7083H4.16666H1.66666C1.63651 14.7083 1.60523 14.696 1.57958 14.6704C1.55394 14.6448 1.54166 14.6135 1.54166 14.5833C1.54166 14.5532 1.55394 14.5219 1.57958 14.4963C1.60523 14.4706 1.63651 14.4583 1.66666 14.4583H4.16666H4.66666V13.9583V13.75C4.66666 13.2282 4.81921 12.9676 4.98271 12.8266C5.16004 12.6737 5.44067 12.5833 5.83332 12.5833H10.8333C11.226 12.5833 11.5066 12.6737 11.6839 12.8266C11.8474 12.9676 12 13.2282 12 13.75V13.9583V14.4583H12.5H18.3333C18.3635 14.4583 18.3948 14.4706 18.4204 14.4963C18.446 14.5219 18.4583 14.5532 18.4583 14.5833C18.4583 14.6135 18.446 14.6448 18.4204 14.6704C18.3948 14.696 18.3635 14.7083 18.3333 14.7083H12.5ZM15.8333 5.54166H15.3333V6.04166V6.24999C15.3333 6.77176 15.1808 7.03242 15.0173 7.17337C14.8399 7.32624 14.5593 7.41666 14.1667 7.41666H9.16666C8.77401 7.41666 8.49337 7.32624 8.31604 7.17337C8.15254 7.03242 7.99999 6.77176 7.99999 6.24999V6.04166V5.54166H7.49999H1.66666C1.63651 5.54166 1.60523 5.52937 1.57958 5.50373C1.55394 5.47809 1.54166 5.44681 1.54166 5.41666C1.54166 5.38651 1.55394 5.35523 1.57958 5.32959C1.60523 5.30394 1.63651 5.29166 1.66666 5.29166H7.49999H7.99999V4.79166V4.58332C7.99999 4.06155 8.15254 3.80089 8.31604 3.65994C8.49337 3.50708 8.77401 3.41666 9.16666 3.41666H14.1667C14.5593 3.41666 14.8399 3.50708 15.0173 3.65994C15.1808 3.80089 15.3333 4.06155 15.3333 4.58332V4.79166V5.29166H15.8333H18.3333C18.3635 5.29166 18.3948 5.30394 18.4204 5.32959C18.446 5.35523 18.4583 5.38651 18.4583 5.41666C18.4583 5.44681 18.446 5.47809 18.4204 5.50373C18.3948 5.52937 18.3635 5.54166 18.3333 5.54166H15.8333Z" stroke="#9A9A9A"/>
</svg>